<?xml version="1.0" standalone="no"?><!DOCTYPE svg PUBLIC "-//W3C//DTD SVG 1.1//EN" "http://www.w3.org/Graphics/SVG/1.1/DTD/svg11.dtd"><svg t="1515297081537" class="icon" style="" viewBox="0 0 1024 1024" version="1.1" xmlns="http://www.w3.org/2000/svg" p-id="365" xmlns:xlink="http://www.w3.org/1999/xlink" width="200" height="200"><defs><style type="text/css"></style></defs><path d="M525.824 53.248c-245.76 0-444.928 199.168-444.928 444.928 0 245.76 199.168 444.928 444.928 444.928s444.928-199.168 444.928-444.928c0-245.76-199.168-444.928-444.928-444.928z m346.624 442.368l-120.832-77.312 75.776-92.16c28.672 50.176 45.056 107.52 45.056 169.472zM302.08 235.008c40.96 38.4 138.24 126.464 138.24 126.464s53.248-94.208 74.24-130.56c43.52-15.872 94.72 10.24 94.72 10.24l7.168 29.696c-22.016-15.872-43.008 10.24-43.008 10.24l48.128 78.336s93.696-89.6 131.584-123.904c39.424 32.768 67.584 79.36 67.584 79.36L527.36 643.584 231.936 317.952s27.136-50.176 70.144-82.944zM181.76 496.64c0-60.928 15.872-117.76 43.52-167.424l77.824 91.136-120.832 79.36c0-1.024-0.512-2.048-0.512-3.072z m26.624 132.608c-14.848-35.84-24.064-74.24-26.112-115.2L311.296 430.08l49.664 60.416-152.576 138.752z m5.12 12.288l152.576-138.752 61.952 76.8-150.528 155.648c-26.112-27.136-47.616-58.88-64-93.696z m313.856 200.704c-78.848 0-152.064-26.624-209.92-71.168l152.064-167.936 59.392 66.56 58.368-67.072 153.6 165.888c-58.88 46.08-133.12 73.728-213.504 73.728z m252.416-110.08l-147.456-154.112 58.368-75.776 151.552 135.168c-15.36 35.328-36.864 67.072-62.464 94.72z m68.096-106.496l-149.504-133.12 47.104-62.976 126.976 80.896c-1.536 40.448-10.24 79.36-24.576 115.2z" fill="#2c2c2c" p-id="366"></path></svg>